<svg width="94" height="26" viewBox="0 0 94 26" fill="none" xmlns="http://www.w3.org/2000/svg">
<path d="M0 0H80C87.732 0 94 6.26801 94 14V26H0V0Z" fill="#FFB770"/>
<path d="M9.328 19V7.72H14.112C15.3173 7.72 16.24 8.01333 16.88 8.6C17.5307 9.176 17.856 9.976 17.856 11C17.856 12.024 17.5307 12.8293 16.88 13.416C16.24 14.0027 15.3173 14.296 14.112 14.296H10.992V19H9.328ZM10.992 12.968H13.936C14.6933 12.968 15.264 12.7973 15.648 12.456C16.032 12.1147 16.224 11.6293 16.224 11C16.224 10.3813 16.032 9.90133 15.648 9.56C15.264 9.21867 14.6933 9.048 13.936 9.048H10.992V12.968ZM22.4699 19.144C21.4992 19.144 20.7685 18.8827 20.2779 18.36C19.7979 17.8267 19.5579 17.0107 19.5579 15.912V10.936H21.1739V15.88C21.1739 16.552 21.3125 17.048 21.5899 17.368C21.8672 17.688 22.2885 17.848 22.8539 17.848C23.4939 17.848 24.0112 17.6347 24.4059 17.208C24.8005 16.7813 24.9979 16.216 24.9979 15.512V10.936H26.6139V19H25.0459V17.272H25.2539C25.0299 17.8693 24.6725 18.3333 24.1819 18.664C23.6912 18.984 23.1205 19.144 22.4699 19.144ZM33.2849 19.144C32.5809 19.144 31.9675 18.968 31.4449 18.616C30.9222 18.264 30.5755 17.784 30.4049 17.176H30.5809V19H28.9809V7.224H30.5969V12.728H30.4049C30.5862 12.1307 30.9329 11.6613 31.4449 11.32C31.9675 10.968 32.5809 10.792 33.2849 10.792C33.9995 10.792 34.6235 10.9627 35.1569 11.304C35.6902 11.6347 36.1009 12.1147 36.3889 12.744C36.6875 13.3627 36.8369 14.1093 36.8369 14.984C36.8369 15.848 36.6875 16.5947 36.3889 17.224C36.1009 17.8427 35.6849 18.3173 35.1409 18.648C34.6075 18.9787 33.9889 19.144 33.2849 19.144ZM32.8849 17.88C33.5782 17.88 34.1382 17.64 34.5649 17.16C34.9915 16.6693 35.2049 15.944 35.2049 14.984C35.2049 14.0133 34.9915 13.288 34.5649 12.808C34.1382 12.3173 33.5782 12.072 32.8849 12.072C32.1809 12.072 31.6155 12.3173 31.1889 12.808C30.7729 13.288 30.5649 14.008 30.5649 14.968C30.5649 15.928 30.7729 16.6533 31.1889 17.144C31.6155 17.6347 32.1809 17.88 32.8849 17.88ZM38.7309 19V7.224H40.3469V19H38.7309ZM42.7153 19V10.936H44.3313V19H42.7153ZM42.5872 9.256V7.576H44.4593V9.256H42.5872ZM49.4676 19.144C48.7956 19.144 48.177 19.0587 47.6116 18.888C47.0463 18.7173 46.577 18.4773 46.2036 18.168L46.6996 17.064C47.0943 17.3627 47.5316 17.5867 48.0116 17.736C48.4916 17.8853 48.9823 17.96 49.4836 17.96C50.0703 17.96 50.513 17.8587 50.8116 17.656C51.1103 17.4427 51.2596 17.1547 51.2596 16.792C51.2596 16.5147 51.1636 16.2907 50.9716 16.12C50.7903 15.9493 50.4863 15.8213 50.0596 15.736L48.5236 15.432C47.841 15.2827 47.3236 15.0267 46.9716 14.664C46.6196 14.3013 46.4436 13.8373 46.4436 13.272C46.4436 12.792 46.5716 12.3653 46.8276 11.992C47.0943 11.6187 47.4676 11.3253 47.9476 11.112C48.4383 10.8987 49.009 10.792 49.6596 10.792C50.257 10.792 50.8116 10.8773 51.3236 11.048C51.8356 11.2187 52.2623 11.464 52.6036 11.784L52.0916 12.856C51.761 12.5787 51.3876 12.3653 50.9716 12.216C50.5556 12.056 50.1343 11.976 49.7076 11.976C49.1103 11.976 48.6676 12.088 48.3796 12.312C48.0916 12.536 47.9476 12.8293 47.9476 13.192C47.9476 13.4693 48.033 13.6987 48.2036 13.88C48.385 14.0507 48.6676 14.184 49.0516 14.28L50.5876 14.584C51.313 14.7333 51.857 14.9787 52.2196 15.32C52.5823 15.6613 52.7636 16.12 52.7636 16.696C52.7636 17.1973 52.625 17.6347 52.3476 18.008C52.0703 18.3813 51.6863 18.664 51.1956 18.856C50.705 19.048 50.129 19.144 49.4676 19.144ZM54.6684 19V7.224H56.2844V12.648H56.0604C56.295 12.04 56.6737 11.5813 57.1964 11.272C57.719 10.952 58.3217 10.792 59.0044 10.792C59.9644 10.792 60.679 11.0587 61.1484 11.592C61.6177 12.1147 61.8524 12.9093 61.8524 13.976V19H60.2364V14.072C60.2364 13.3787 60.0977 12.8773 59.8204 12.568C59.5537 12.248 59.127 12.088 58.5404 12.088C57.8577 12.088 57.3084 12.3013 56.8924 12.728C56.487 13.144 56.2844 13.6987 56.2844 14.392V19H54.6684ZM67.8808 19.144C66.5794 19.144 65.5554 18.776 64.8088 18.04C64.0621 17.304 63.6888 16.2853 63.6888 14.984C63.6888 14.1413 63.8488 13.4053 64.1688 12.776C64.4994 12.1467 64.9528 11.6613 65.5288 11.32C66.1154 10.968 66.7928 10.792 67.5608 10.792C68.3181 10.792 68.9528 10.952 69.4648 11.272C69.9768 11.592 70.3661 12.0453 70.6328 12.632C70.8994 13.208 71.0328 13.8907 71.0328 14.68V15.192H64.9528V14.264H69.9288L69.6568 14.472C69.6568 13.672 69.4754 13.0533 69.1128 12.616C68.7608 12.168 68.2488 11.944 67.5768 11.944C66.8301 11.944 66.2541 12.2053 65.8488 12.728C65.4434 13.24 65.2408 13.9493 65.2408 14.856V15.016C65.2408 15.9653 65.4701 16.68 65.9288 17.16C66.3981 17.64 67.0594 17.88 67.9128 17.88C68.3821 17.88 68.8194 17.816 69.2248 17.688C69.6408 17.5493 70.0354 17.3253 70.4088 17.016L70.9368 18.12C70.5634 18.4507 70.1101 18.7067 69.5768 18.888C69.0434 19.0587 68.4781 19.144 67.8808 19.144ZM75.9751 19.144C75.2711 19.144 74.6471 18.9787 74.1031 18.648C73.5698 18.3173 73.1538 17.8373 72.8551 17.208C72.5671 16.5787 72.4231 15.832 72.4231 14.968C72.4231 14.0933 72.5671 13.3467 72.8551 12.728C73.1538 12.1093 73.5698 11.6347 74.1031 11.304C74.6471 10.9627 75.2711 10.792 75.9751 10.792C76.6685 10.792 77.2765 10.968 77.7991 11.32C78.3325 11.6613 78.6845 12.1307 78.8551 12.728H78.6631V7.224H80.2791V19H78.6791V17.176H78.8711C78.6898 17.784 78.3378 18.264 77.8151 18.616C77.2925 18.968 76.6791 19.144 75.9751 19.144ZM76.3751 17.88C77.0685 17.88 77.6285 17.6347 78.0551 17.144C78.4818 16.6533 78.6951 15.928 78.6951 14.968C78.6951 14.008 78.4818 13.288 78.0551 12.808C77.6285 12.3173 77.0685 12.072 76.3751 12.072C75.6711 12.072 75.1058 12.3173 74.6791 12.808C74.2631 13.288 74.0551 14.008 74.0551 14.968C74.0551 15.928 74.2631 16.6533 74.6791 17.144C75.1058 17.6347 75.6711 17.88 76.3751 17.88Z" fill="#221227"/>
</svg>
